<?xml version="1.0" standalone="no"?>
<!DOCTYPE svg PUBLIC "-//W3C//DTD SVG 20010904//EN"
 "http://www.w3.org/TR/2001/REC-SVG-20010904/DTD/svg10.dtd">
<svg version="1.0" xmlns="http://www.w3.org/2000/svg"
 width="260.000000pt" height="260.000000pt" viewBox="0 0 260.000000 260.000000"
 preserveAspectRatio="xMidYMid meet">
<metadata>
Created by potrace 1.11, written by Peter Selinger 2001-2013
</metadata>
<g transform="translate(0.000000,260.000000) scale(0.100000,-0.100000)"
fill="#000000" stroke="none">
<path d="M0 1300 l0 -1300 1300 0 1300 0 0 1300 0 1300 -1300 0 -1300 0 0
-1300z m1543 741 c128 -65 379 -194 560 -285 l327 -167 0 -495 0 -494 -210 0
-210 0 -2 352 -3 352 -350 178 -350 179 -355 -180 -355 -180 -3 -276 -2 -276
57 3 58 3 3 222 2 222 297 152 297 152 295 -151 296 -151 3 -300 2 -301 -75 0
-75 0 0 255 0 254 -223 112 -222 112 -225 -114 -225 -114 -3 -252 -2 -253
-205 0 -205 0 2 396 3 395 429 219 430 218 428 -216 427 -217 1 -322 0 -323
60 0 60 0 -2 376 -3 375 -485 247 -486 246 -269 -136 c-149 -76 -367 -186
-485 -247 l-215 -110 -3 -450 -2 -451 -80 0 -80 0 0 493 0 492 563 287 c309
158 566 288 570 288 4 0 112 -53 240 -119z"/>
</g>
</svg>
